####
#
# OBJ File Generated by Meshlab
#
####
# Object Ikea_stefan_bottom.obj
#
# Vertices: 60
# Faces: 116
#
####
mtllib ./Ikea_stefan_bottom.obj.mtl

vn -0.609939 -3.066392 -2.945252
v -209.657059 -204.807846 -5.000033 0.752941 0.752941 0.752941
vn -0.153970 -3.134031 3.043415
v -207.706146 -205.000000 4.999967 0.752941 0.752941 0.752941
vn -0.609939 -3.066394 2.945252
v -209.657059 -204.807846 4.999967 0.752941 0.752941 0.752941
vn -0.153970 -3.134028 -3.043415
v -207.706146 -205.000000 -5.000033 0.752941 0.752941 0.752941
vn -1.196441 -2.888478 -2.945236
v -211.532990 -204.238800 -5.000033 0.752941 0.752941 0.752941
vn -1.196441 -2.888478 2.945236
v -211.532990 -204.238800 4.999967 0.752941 0.752941 0.752941
vn -1.736971 -2.599562 2.945248
v -213.261856 -203.314697 4.999967 0.752941 0.752941 0.752941
vn -1.736971 -2.599562 -2.945248
v -213.261856 -203.314697 -5.000033 0.752941 0.752941 0.752941
vn -2.210745 -2.210745 2.945238
v -214.777222 -202.071075 4.999967 0.752941 0.752941 0.752941
vn -2.210744 -2.210744 -2.945238
v -214.777222 -202.071075 -5.000033 0.752941 0.752941 0.752941
vn -2.599562 -1.736965 2.945244
v -216.020844 -200.555710 4.999968 0.752941 0.752941 0.752941
vn -2.599564 -1.736964 -2.945244
v -216.020844 -200.555710 -5.000033 0.752941 0.752941 0.752941
vn -2.888479 -1.196448 2.945245
v -216.944946 -198.826828 4.999968 0.752941 0.752941 0.752941
vn -2.888482 -1.196448 -2.945243
v -216.944946 -198.826828 -5.000032 0.752941 0.752941 0.752941
vn -3.066397 -0.609941 2.945233
v -217.514008 -196.950897 4.999968 0.752941 0.752941 0.752941
vn -3.066391 -0.609940 -2.945237
v -217.514008 -196.950897 -5.000032 0.752941 0.752941 0.752941
vn -3.133662 -0.120567 3.022163
v -217.706146 -195.000000 4.999969 0.752941 0.752941 0.752941
vn -3.133675 -0.120567 -3.022162
v -217.706146 -195.000000 -5.000032 0.752941 0.752941 0.752941
vn 0.153970 -3.134029 3.043415
v 207.706146 -205.000000 4.999967 0.752941 0.752941 0.752941
vn 0.153970 -3.134030 -3.043415
v 207.706146 -205.000000 -5.000033 0.752941 0.752941 0.752941
vn 0.609939 -3.066392 -2.945253
v 209.657059 -204.807846 -5.000033 0.752941 0.752941 0.752941
vn 0.609939 -3.066394 2.945251
v 209.657059 -204.807846 4.999967 0.752941 0.752941 0.752941
vn 1.196441 -2.888478 -2.945236
v 211.532990 -204.238800 -5.000033 0.752941 0.752941 0.752941
vn 1.196441 -2.888479 2.945236
v 211.532990 -204.238800 4.999967 0.752941 0.752941 0.752941
vn 1.736971 -2.599562 -2.945248
v 213.261856 -203.314697 -5.000033 0.752941 0.752941 0.752941
vn 1.736971 -2.599563 2.945247
v 213.261856 -203.314697 4.999967 0.752941 0.752941 0.752941
vn 2.210744 -2.210744 -2.945238
v 214.777222 -202.071075 -5.000033 0.752941 0.752941 0.752941
vn 2.210749 -2.210750 2.945238
v 214.777222 -202.071075 4.999967 0.752941 0.752941 0.752941
vn 2.599564 -1.736965 -2.945244
v 216.020844 -200.555710 -5.000033 0.752941 0.752941 0.752941
vn 2.599564 -1.736966 2.945244
v 216.020844 -200.555710 4.999968 0.752941 0.752941 0.752941
vn 2.888486 -1.196449 -2.945247
v 216.944946 -198.826828 -5.000032 0.752941 0.752941 0.752941
vn 2.888478 -1.196447 2.945247
v 216.944946 -198.826828 4.999968 0.752941 0.752941 0.752941
vn 3.066393 -0.609940 -2.945231
v 217.514008 -196.950897 -5.000032 0.752941 0.752941 0.752941
vn 3.066393 -0.609941 2.945231
v 217.514008 -196.950897 4.999968 0.752941 0.752941 0.752941
vn 3.133674 -0.120567 -3.022163
v 217.706146 -195.000000 -5.000032 0.752941 0.752941 0.752941
vn 3.133662 -0.120567 3.022163
v 217.706146 -195.000000 4.999969 0.752941 0.752941 0.752941
vn -1.570796 1.570796 -1.570796
v -134.000000 205.000000 -4.999967 0.752941 0.752941 0.752941
vn 1.570796 1.570796 1.570796
v 134.000000 205.000000 5.000033 0.752941 0.752941 0.752941
vn 1.570796 1.570797 -1.570796
v 134.000000 205.000000 -4.999967 0.752941 0.752941 0.752941
vn -1.570796 1.570796 1.570796
v -134.000000 205.000000 5.000033 0.752941 0.752941 0.752941
vn -1.570796 1.570797 -4.712391
v -134.000000 170.000000 -4.999972 0.752941 0.752941 0.752941
vn -1.570796 1.570796 4.712391
v -134.000000 170.000000 5.000028 0.752941 0.752941 0.752941
vn -1.558048 1.770517 -1.698287
v -171.000000 170.000000 -4.999972 0.752941 0.752941 0.752941
vn -1.558046 1.770516 1.698287
v -171.000000 170.000000 5.000028 0.752941 0.752941 0.752941
vn -3.119986 0.366287 -3.120342
v -217.624985 -193.728546 -5.000032 0.752941 0.752941 0.752941
vn -3.119988 0.366287 3.120342
v -217.624985 -193.728546 4.999969 0.752941 0.752941 0.752941
vn 3.138040 0.133450 3.099109
v 217.697113 -194.575165 4.999969 0.752941 0.752941 0.752941
vn 3.119987 0.366287 3.120343
v 217.624985 -193.728546 4.999969 0.752941 0.752941 0.752941
vn 3.129549 0.266626 3.099096
v 217.670044 -194.151077 4.999969 0.752941 0.752941 0.752941
vn -3.138045 0.133451 3.099108
v -217.697113 -194.575165 4.999969 0.752941 0.752941 0.752941
vn -3.129548 0.266626 3.099096
v -217.670044 -194.151077 4.999969 0.752941 0.752941 0.752941
vn 1.558046 1.770516 1.698287
v 171.000000 170.000000 5.000028 0.752941 0.752941 0.752941
vn 1.570796 1.570796 4.712391
v 134.000000 170.000000 5.000028 0.752941 0.752941 0.752941
vn 3.138050 0.133451 -3.099109
v 217.697113 -194.575165 -5.000032 0.752941 0.752941 0.752941
vn 3.119987 0.366288 -3.120343
v 217.624985 -193.728546 -5.000032 0.752941 0.752941 0.752941
vn 3.129546 0.266626 -3.099096
v 217.670044 -194.151077 -5.000032 0.752941 0.752941 0.752941
vn -3.138049 0.133451 -3.099109
v -217.697113 -194.575165 -5.000032 0.752941 0.752941 0.752941
vn -3.129547 0.266626 -3.099096
v -217.670044 -194.151077 -5.000032 0.752941 0.752941 0.752941
vn 1.570796 1.570797 -4.712391
v 134.000000 170.000000 -4.999972 0.752941 0.752941 0.752941
vn 1.558048 1.770517 -1.698287
v 171.000000 170.000000 -4.999972 0.752941 0.752941 0.752941
# 60 vertices, 0 vertices normals


usemtl material_0
vt 0.478152 0.963428
vt 0.490618 0.961296
vt 0.490618 0.963428
f 1/1/1 2/2/2 3/3/3
vt 0.478152 0.961296
f 1/1/1 4/4/4 2/2/2
vt 0.478152 0.965478
vt 0.490618 0.965478
vt 0.490618 0.967368
f 5/5/5 6/6/6 7/7/7
f 5/5/5 3/3/3 6/6/6
f 5/5/5 1/1/1 3/3/3
vt 0.478152 0.967368
vt 0.490618 0.969024
f 8/8/8 7/7/7 9/9/9
f 8/8/8 5/5/5 7/7/7
vt 0.882376 0.861432
vt 0.872522 0.861432
vt 0.872522 0.860112
f 10/10/10 9/11/9 11/12/11
vt 0.478152 0.969024
f 10/13/10 8/8/8 9/9/9
vt 0.882376 0.860112
vt 0.872522 0.858610
f 12/14/12 11/12/11 13/15/13
f 12/14/12 10/10/10 11/12/11
vt 0.882376 0.858610
vt 0.872522 0.856985
f 14/16/14 13/15/13 15/17/15
f 14/16/14 12/14/12 13/15/13
vt 0.882376 0.856985
vt 0.872522 0.855298
f 16/18/16 15/17/15 17/19/17
f 16/18/16 14/16/14 15/17/15
vt 0.882376 0.855298
f 18/20/18 16/18/16 17/19/17
vt 0.490618 0.507267
vt 0.478152 0.507267
vt 0.478152 0.505135
f 19/21/19 20/22/20 21/23/21
vt 0.490618 0.505135
vt 0.478152 0.503085
f 22/24/22 21/23/21 23/25/23
f 22/24/22 19/21/19 21/23/21
vt 0.490618 0.503085
vt 0.478152 0.501195
f 24/26/24 23/25/23 25/27/25
f 24/26/24 22/24/22 23/25/23
vt 0.490618 0.501195
vt 0.478152 0.499539
f 26/28/26 25/27/25 27/29/27
f 26/28/26 24/26/24 25/27/25
vt 0.862667 0.540378
vt 0.872522 0.540378
vt 0.872522 0.541698
f 28/30/28 27/31/27 29/32/29
vt 0.490618 0.499539
f 28/33/28 26/28/26 27/29/27
vt 0.862667 0.541698
vt 0.872522 0.543200
f 30/34/30 29/32/29 31/35/31
f 30/34/30 28/30/28 29/32/29
vt 0.862667 0.543200
vt 0.872522 0.544826
f 32/36/32 31/35/31 33/37/33
f 32/36/32 30/34/30 31/35/31
vt 0.862667 0.544826
vt 0.872522 0.546513
f 34/38/34 33/37/33 35/39/35
f 34/38/34 32/36/32 33/37/33
vt 0.862667 0.546513
f 36/40/36 34/38/34 35/39/35
f 20/22/20 2/2/2 4/4/4
f 19/21/19 2/2/2 20/22/20
vt 0.590989 0.645682
vt 0.603455 0.938595
vt 0.590989 0.938595
f 37/41/37 38/42/38 39/43/39
vt 0.603455 0.645682
f 40/44/40 38/42/38 37/41/37
vt 0.653319 0.683933
vt 0.640853 0.645682
vt 0.653319 0.645682
f 41/45/41 40/46/40 37/47/37
vt 0.210216 0.661786
vt 0.210216 0.623535
vt 0.222682 0.661786
f 42/48/42 40/49/40 41/50/41
vt 0.185284 0.623535
vt 0.197750 0.663974
vt 0.185284 0.663974
f 43/51/43 42/52/42 41/53/41
vt 0.197750 0.623535
f 44/54/44 42/52/42 43/51/43
vt 0.882376 0.854200
vt 0.882376 0.540378
f 45/55/45 44/31/44 43/56/43
vt 0.872522 0.854200
f 46/57/46 44/31/44 45/55/45
vt 0.237220 0.623535
vt 0.237220 0.627799
vt 0.236980 0.625667
f 30/58/30 26/59/26 28/60/28
vt 0.236741 0.625667
vt 0.236980 0.623535
vt 0.236980 0.627799
f 32/61/32 34/62/34 30/63/30
vt 0.237699 0.623535
vt 0.237699 0.627799
vt 0.237459 0.625667
f 26/64/26 22/65/22 24/66/24
vt 0.237699 0.624920
vt 0.237728 0.624457
vt 0.237854 0.627059
f 36/67/36 47/68/47 34/69/34
vt 0.228434 0.638378
vt 0.230101 0.623535
vt 0.230101 0.639945
f 22/70/22 48/71/48 19/72/19
vt 0.237780 0.623994
vt 0.237854 0.623535
f 49/73/49 48/74/48 47/68/47
vt 0.231769 0.631052
vt 0.233474 0.623535
vt 0.233474 0.635046
f 30/75/30 48/76/48 26/77/26
vt 0.234331 0.626991
vt 0.235115 0.623535
vt 0.235115 0.631200
f 34/78/34 48/79/48 30/80/30
vt 0.225872 0.634825
vt 0.228434 0.623535
vt 0.228434 0.638450
f 26/81/26 48/82/48 22/83/22
f 47/68/47 48/74/48 34/69/34
vt 0.237459 0.623535
vt 0.237459 0.627799
vt 0.237220 0.625667
f 6/84/6 9/85/9 7/86/7
vt 0.236221 0.623535
vt 0.236221 0.629880
vt 0.235744 0.625636
f 3/87/3 9/88/9 6/89/6
vt 0.236221 0.625662
vt 0.236512 0.628254
vt 0.236409 0.627798
f 15/90/15 50/91/50 17/92/17
vt 0.236512 0.623535
f 13/93/13 50/91/50 15/90/15
vt 0.237866 0.623535
vt 0.237866 0.624463
vt 0.237854 0.623999
f 50/94/50 46/95/46 51/96/51
vt 0.235744 0.623535
vt 0.235744 0.631200
vt 0.235115 0.625605
f 11/97/11 46/98/46 13/99/13
vt 0.234331 0.623535
vt 0.234331 0.633169
vt 0.233474 0.625541
f 9/100/9 46/101/46 11/102/11
vt 0.231769 0.623535
vt 0.231769 0.639945
vt 0.230101 0.625101
f 2/103/2 46/104/46 3/105/3
vt 0.225872 0.623535
vt 0.225872 0.638450
vt 0.222682 0.629230
f 3/106/3 46/107/46 9/108/9
vt 0.236741 0.623535
vt 0.236741 0.629156
vt 0.236512 0.628249
f 13/109/13 46/110/46 50/111/50
vt 0.821175 0.617568
vt 0.856709 0.610405
vt 0.856709 0.932849
f 52/112/52 53/113/53 48/114/48
vt 0.868441 0.932684
vt 0.880174 0.610405
vt 0.880174 0.940587
f 48/115/48 53/116/53 19/117/19
vt 0.313230 0.509382
vt 0.689779 0.954887
vt 0.213356 0.954887
f 19/118/19 42/119/42 2/120/2
vt 0.868441 0.610405
vt 0.868441 0.940587
vt 0.856709 0.618308
f 2/121/2 42/122/42 46/123/46
vt 0.540811 0.696335
vt 0.713592 0.558299
vt 0.713592 0.946264
f 53/124/53 42/125/42 19/126/19
vt 0.065411 0.854922
vt 0.108675 0.564476
vt 0.108675 0.859876
f 38/127/38 40/128/40 53/129/53
vt 0.065411 0.564476
vt 0.065411 0.859876
vt 0.022147 0.854922
f 53/130/53 40/131/40 42/132/42
vt 0.821175 0.932849
vt 0.785642 0.925686
vt 0.821175 0.610405
f 42/133/42 44/134/44 46/135/46
vt 0.424034 0.518590
vt 0.421332 0.515044
vt 0.422882 0.516700
f 23/136/23 27/137/27 25/138/25
vt 0.414949 0.512053
vt 0.417287 0.512675
vt 0.419443 0.513685
f 33/139/33 31/140/31 29/141/29
vt 0.424743 0.520640
f 21/142/21 29/141/29 27/137/27
f 21/142/21 27/137/27 23/136/23
vt 0.411987 0.511853
vt 0.412517 0.511843
f 54/143/54 35/144/35 33/139/33
vt 0.410932 0.511932
vt 0.411459 0.511882
f 55/145/55 56/146/56 54/143/54
vt 0.424983 0.522772
f 55/145/55 21/142/21 20/147/20
f 55/145/55 33/139/33 29/141/29
f 55/145/55 29/141/29 21/142/21
f 55/145/55 54/143/54 33/139/33
vt 0.421332 0.984529
vt 0.424744 0.978933
vt 0.424034 0.980983
f 10/148/10 1/149/1 5/150/5
vt 0.422882 0.982873
f 10/148/10 5/150/5 8/151/8
vt 0.412517 0.987730
vt 0.417288 0.986898
vt 0.414949 0.987520
f 18/152/18 14/153/14 16/154/16
vt 0.411987 0.987721
f 57/155/57 14/153/14 18/152/18
vt 0.410932 0.987642
vt 0.424983 0.976801
f 45/156/45 4/157/4 1/149/1
vt 0.419443 0.985888
f 45/156/45 10/148/10 12/158/12
f 45/156/45 12/158/12 14/153/14
vt 0.411459 0.987691
f 45/156/45 57/155/57 58/159/58
f 45/156/45 1/149/1 10/148/10
f 45/156/45 14/153/14 57/155/57
vt 0.314993 0.104799
vt 0.314993 0.068714
vt 0.719591 0.023243
f 59/160/59 60/161/60 55/162/55
vt 0.732129 0.032916
f 59/160/59 55/162/55 20/163/20
vt 0.314993 0.366167
vt 0.732129 0.438050
f 41/164/41 20/163/20 4/165/4
f 41/164/41 59/160/59 20/163/20
vt 0.719591 0.447723
f 41/164/41 4/165/4 45/166/45
vt 0.276060 0.366168
vt 0.276060 0.104799
f 37/167/37 39/168/39 59/160/59
f 37/167/37 59/160/59 41/164/41
vt 0.314993 0.402252
f 43/169/43 41/164/41 45/166/45
vt 0.862668 0.861432
vt 0.862667 0.547611
vt 0.872522 0.547611
f 52/170/52 48/171/48 55/172/55
f 52/170/52 55/172/55 60/11/60
vt 0.172818 0.663974
vt 0.172818 0.623535
f 53/51/53 60/173/60 59/174/59
f 53/51/53 52/53/52 60/173/60
vt 0.628387 0.683933
vt 0.640853 0.683933
f 38/175/38 59/46/59 39/176/39
vt 0.197750 0.661786
f 38/177/38 53/54/53 59/49/59
vt 0.872522 0.546880
f 36/40/36 35/39/35 54/178/54
vt 0.862667 0.546880
f 47/179/47 36/40/36 54/178/54
vt 0.862667 0.547246
vt 0.872522 0.547246
f 49/180/49 56/181/56 55/172/55
f 49/180/49 54/178/54 56/181/56
f 49/180/49 47/179/47 54/178/54
f 48/171/48 49/180/49 55/172/55
vt 0.872522 0.854931
f 18/20/18 17/19/17 50/182/50
vt 0.882376 0.854931
vt 0.872522 0.854565
f 57/183/57 50/182/50 51/184/51
f 57/183/57 18/20/18 50/182/50
vt 0.882376 0.854565
f 58/185/58 51/184/51 46/57/46
f 58/185/58 57/183/57 51/184/51
f 45/55/45 58/185/58 46/57/46
# 116 faces, 185 coords texture

# End of File