# Blender v2.82 (sub 7) OBJ File: ''
# www.blender.org
mtllib Ikea_stefan_bottom.mtl
o Ikea_stefan_bottom
v -209.657059 -204.807846 -0.000033
v -207.706146 -205.000000 9.999967
v -209.657059 -204.807846 9.999967
v -207.706146 -205.000000 -0.000033
v -211.532990 -204.238800 -0.000033
v -211.532990 -204.238800 9.999967
v -213.261856 -203.314697 9.999967
v -213.261856 -203.314697 -0.000033
v -214.777222 -202.071075 9.999967
v -214.777222 -202.071075 -0.000033
v -216.020844 -200.555710 9.999968
v -216.020844 -200.555710 -0.000033
v -216.944946 -198.826828 9.999968
v -216.944946 -198.826828 -0.000032
v -217.514008 -196.950897 9.999968
v -217.514008 -196.950897 -0.000032
v -217.706146 -195.000000 9.999969
v -217.706146 -195.000000 -0.000032
v 207.706146 -205.000000 9.999967
v 207.706146 -205.000000 -0.000033
v 209.657059 -204.807846 -0.000033
v 209.657059 -204.807846 9.999967
v 211.532990 -204.238800 -0.000033
v 211.532990 -204.238800 9.999967
v 213.261856 -203.314697 -0.000033
v 213.261856 -203.314697 9.999967
v 214.777222 -202.071075 -0.000033
v 214.777222 -202.071075 9.999967
v 216.020844 -200.555710 -0.000033
v 216.020844 -200.555710 9.999968
v 216.944946 -198.826828 -0.000032
v 216.944946 -198.826828 9.999968
v 217.514008 -196.950897 -0.000032
v 217.514008 -196.950897 9.999968
v 217.706146 -195.000000 -0.000032
v 217.706146 -195.000000 9.999969
v -134.000000 205.000000 0.000033
v 134.000000 205.000000 10.000033
v 134.000000 205.000000 0.000033
v -134.000000 205.000000 10.000033
v -134.000000 170.000000 0.000028
v -134.000000 170.000000 10.000028
v -171.000000 170.000000 0.000028
v -171.000000 170.000000 10.000028
v -217.624985 -193.728546 -0.000032
v -217.624985 -193.728546 9.999969
v 217.697113 -194.575165 9.999969
v 217.624985 -193.728546 9.999969
v 217.670044 -194.151077 9.999969
v -217.697113 -194.575165 9.999969
v -217.670044 -194.151077 9.999969
v 171.000000 170.000000 10.000028
v 134.000000 170.000000 10.000028
v 217.697113 -194.575165 -0.000032
v 217.624985 -193.728546 -0.000032
v 217.670044 -194.151077 -0.000032
v -217.697113 -194.575165 -0.000032
v -217.670044 -194.151077 -0.000032
v 134.000000 170.000000 0.000028
v 171.000000 170.000000 0.000028
vt 0.478152 0.963428
vt 0.490618 0.961296
vt 0.490618 0.963428
vt 0.478152 0.961296
vt 0.478152 0.965478
vt 0.490618 0.965478
vt 0.490618 0.967368
vt 0.478152 0.967368
vt 0.490618 0.969024
vt 0.882376 0.861432
vt 0.872522 0.861432
vt 0.872522 0.860112
vt 0.478152 0.969024
vt 0.882376 0.860112
vt 0.872522 0.858610
vt 0.882376 0.858610
vt 0.872522 0.856985
vt 0.882376 0.856985
vt 0.872522 0.855298
vt 0.882376 0.855298
vt 0.490618 0.507267
vt 0.478152 0.507267
vt 0.478152 0.505135
vt 0.490618 0.505135
vt 0.478152 0.503085
vt 0.490618 0.503085
vt 0.478152 0.501195
vt 0.490618 0.501195
vt 0.478152 0.499539
vt 0.862667 0.540378
vt 0.872522 0.540378
vt 0.872522 0.541698
vt 0.490618 0.499539
vt 0.862667 0.541698
vt 0.872522 0.543200
vt 0.862667 0.543200
vt 0.872522 0.544826
vt 0.862667 0.544826
vt 0.872522 0.546513
vt 0.862667 0.546513
vt 0.590989 0.645682
vt 0.603455 0.938595
vt 0.590989 0.938595
vt 0.603455 0.645682
vt 0.653319 0.683933
vt 0.640853 0.645682
vt 0.653319 0.645682
vt 0.210216 0.661786
vt 0.210216 0.623535
vt 0.222682 0.661786
vt 0.185284 0.623535
vt 0.197750 0.663974
vt 0.185284 0.663974
vt 0.197750 0.623535
vt 0.882376 0.854200
vt 0.872522 0.540378
vt 0.882376 0.540378
vt 0.872522 0.854200
vt 0.237220 0.623535
vt 0.237220 0.627799
vt 0.236980 0.625667
vt 0.236741 0.625667
vt 0.236980 0.623535
vt 0.236980 0.627799
vt 0.237699 0.623535
vt 0.237699 0.627799
vt 0.237459 0.625667
vt 0.237699 0.624920
vt 0.237728 0.624457
vt 0.237854 0.627059
vt 0.228434 0.638378
vt 0.230101 0.623535
vt 0.230101 0.639945
vt 0.237780 0.623994
vt 0.237854 0.623535
vt 0.231769 0.631052
vt 0.233474 0.623535
vt 0.233474 0.635046
vt 0.234331 0.626991
vt 0.235115 0.623535
vt 0.235115 0.631200
vt 0.225872 0.634825
vt 0.228434 0.623535
vt 0.228434 0.638450
vt 0.237459 0.623535
vt 0.237459 0.627799
vt 0.237220 0.625667
vt 0.236221 0.623535
vt 0.236221 0.629880
vt 0.235744 0.625636
vt 0.236221 0.625662
vt 0.236512 0.628254
vt 0.236409 0.627798
vt 0.236512 0.623535
vt 0.237866 0.623535
vt 0.237866 0.624463
vt 0.237854 0.623999
vt 0.235744 0.623535
vt 0.235744 0.631200
vt 0.235115 0.625605
vt 0.234331 0.623535
vt 0.234331 0.633169
vt 0.233474 0.625541
vt 0.231769 0.623535
vt 0.231769 0.639945
vt 0.230101 0.625101
vt 0.225872 0.623535
vt 0.225872 0.638450
vt 0.222682 0.629230
vt 0.236741 0.623535
vt 0.236741 0.629156
vt 0.236512 0.628249
vt 0.821175 0.617568
vt 0.856709 0.610405
vt 0.856709 0.932849
vt 0.868441 0.932684
vt 0.880174 0.610405
vt 0.880174 0.940587
vt 0.313230 0.509382
vt 0.689779 0.954887
vt 0.213356 0.954887
vt 0.868441 0.610405
vt 0.868441 0.940587
vt 0.856709 0.618308
vt 0.540811 0.696335
vt 0.713592 0.558299
vt 0.713592 0.946264
vt 0.065411 0.854922
vt 0.108675 0.564476
vt 0.108675 0.859876
vt 0.065411 0.564476
vt 0.065411 0.859876
vt 0.022147 0.854922
vt 0.821175 0.932849
vt 0.785642 0.925686
vt 0.821175 0.610405
vt 0.424034 0.518590
vt 0.421332 0.515044
vt 0.422882 0.516700
vt 0.414949 0.512053
vt 0.417287 0.512675
vt 0.419443 0.513685
vt 0.424743 0.520640
vt 0.411987 0.511853
vt 0.412517 0.511843
vt 0.410932 0.511932
vt 0.411459 0.511882
vt 0.424983 0.522772
vt 0.421332 0.984529
vt 0.424744 0.978933
vt 0.424034 0.980983
vt 0.422882 0.982873
vt 0.412517 0.987730
vt 0.417288 0.986898
vt 0.414949 0.987520
vt 0.411987 0.987721
vt 0.410932 0.987642
vt 0.424983 0.976801
vt 0.419443 0.985888
vt 0.411459 0.987691
vt 0.314993 0.104799
vt 0.314993 0.068714
vt 0.719591 0.023243
vt 0.732129 0.032916
vt 0.314993 0.366167
vt 0.732129 0.438050
vt 0.719591 0.447723
vt 0.276060 0.366168
vt 0.276060 0.104799
vt 0.314993 0.402252
vt 0.862668 0.861432
vt 0.862667 0.547611
vt 0.872522 0.547611
vt 0.872522 0.861432
vt 0.185284 0.623535
vt 0.172818 0.663974
vt 0.172818 0.623535
vt 0.185284 0.663974
vt 0.628387 0.683933
vt 0.640853 0.645682
vt 0.640853 0.683933
vt 0.197750 0.661786
vt 0.197750 0.623535
vt 0.210216 0.623535
vt 0.872522 0.546880
vt 0.862667 0.546880
vt 0.862667 0.547246
vt 0.872522 0.547246
vt 0.872522 0.854931
vt 0.882376 0.854931
vt 0.872522 0.854565
vt 0.882376 0.854565
vn -0.0980 -0.9952 0.0000
vn -0.4714 -0.8819 0.0000
vn -0.2903 -0.9569 0.0000
vn -0.6344 -0.7730 0.0000
vn -0.7730 -0.6344 0.0000
vn -0.8819 -0.4714 0.0000
vn -0.9569 -0.2903 0.0000
vn -0.9952 -0.0980 0.0000
vn 0.0980 -0.9952 0.0000
vn 0.2903 -0.9569 0.0000
vn 0.4714 -0.8819 0.0000
vn 0.6344 -0.7730 0.0000
vn 0.7730 -0.6344 0.0000
vn 0.8819 -0.4714 0.0000
vn 0.9569 -0.2903 0.0000
vn 0.9952 -0.0980 0.0000
vn 0.0000 -1.0000 0.0000
vn 0.0000 1.0000 0.0000
vn -1.0000 0.0000 0.0000
vn -0.9919 0.1271 0.0000
vn -0.0000 -0.0000 1.0000
vn -0.0000 0.0000 -1.0000
vn 0.9919 0.1271 0.0000
vn 1.0000 -0.0000 0.0000
vn 0.9998 0.0213 0.0000
vn 0.9944 0.1061 0.0000
vn 0.9980 0.0638 0.0000
vn 0.9980 0.0637 0.0000
vn 0.9980 0.0636 0.0000
vn -0.9998 0.0213 0.0000
vn -0.9980 0.0637 0.0000
vn -0.9980 0.0638 0.0000
vn -0.9944 0.1061 0.0000
usemtl Default_OBJ
s 1
f 1/1/1 2/2/1 3/3/1
f 1/1/1 4/4/1 2/2/1
f 5/5/2 6/6/2 7/7/2
f 5/5/3 3/3/3 6/6/3
f 5/5/3 1/1/3 3/3/3
f 8/8/4 7/7/4 9/9/4
f 8/8/2 5/5/2 7/7/2
f 10/10/5 9/11/5 11/12/5
f 10/13/4 8/8/4 9/9/4
f 12/14/6 11/12/6 13/15/6
f 12/14/5 10/10/5 11/12/5
f 14/16/7 13/15/7 15/17/7
f 14/16/6 12/14/6 13/15/6
f 16/18/8 15/17/8 17/19/8
f 16/18/7 14/16/7 15/17/7
f 18/20/8 16/18/8 17/19/8
f 19/21/9 20/22/9 21/23/9
f 22/24/10 21/23/10 23/25/10
f 22/24/9 19/21/9 21/23/9
f 24/26/11 23/25/11 25/27/11
f 24/26/10 22/24/10 23/25/10
f 26/28/12 25/27/12 27/29/12
f 26/28/11 24/26/11 25/27/11
f 28/30/13 27/31/13 29/32/13
f 28/33/12 26/28/12 27/29/12
f 30/34/14 29/32/14 31/35/14
f 30/34/13 28/30/13 29/32/13
f 32/36/15 31/35/15 33/37/15
f 32/36/14 30/34/14 31/35/14
f 34/38/16 33/37/16 35/39/16
f 34/38/15 32/36/15 33/37/15
f 36/40/16 34/38/16 35/39/16
f 20/22/17 2/2/17 4/4/17
f 19/21/17 2/2/17 20/22/17
f 37/41/18 38/42/18 39/43/18
f 40/44/18 38/42/18 37/41/18
f 41/45/19 40/46/19 37/47/19
f 42/48/19 40/49/19 41/50/19
f 43/51/18 42/52/18 41/53/18
f 44/54/18 42/52/18 43/51/18
f 45/55/20 44/56/20 43/57/20
f 46/58/20 44/56/20 45/55/20
f 30/59/21 26/60/21 28/61/21
f 32/62/21 34/63/21 30/64/21
f 26/65/21 22/66/21 24/67/21
f 36/68/21 47/69/21 34/70/21
f 22/71/21 48/72/21 19/73/21
f 49/74/21 48/75/21 47/69/21
f 30/76/21 48/77/21 26/78/21
f 34/79/21 48/80/21 30/81/21
f 26/82/21 48/83/21 22/84/21
f 47/69/21 48/75/21 34/70/21
f 6/85/21 9/86/21 7/87/21
f 3/88/21 9/89/21 6/90/21
f 15/91/21 50/92/21 17/93/21
f 13/94/21 50/92/21 15/91/21
f 50/95/21 46/96/21 51/97/21
f 11/98/21 46/99/21 13/100/21
f 9/101/21 46/102/21 11/103/21
f 2/104/21 46/105/21 3/106/21
f 3/107/21 46/108/21 9/109/21
f 13/110/21 46/111/21 50/112/21
f 52/113/21 53/114/21 48/115/21
f 48/116/21 53/117/21 19/118/21
f 19/119/21 42/120/21 2/121/21
f 2/122/21 42/123/21 46/124/21
f 53/125/21 42/126/21 19/127/21
f 38/128/21 40/129/21 53/130/21
f 53/131/21 40/132/21 42/133/21
f 42/134/21 44/135/21 46/136/21
f 23/137/22 27/138/22 25/139/22
f 33/140/22 31/141/22 29/142/22
f 21/143/22 29/142/22 27/138/22
f 21/143/22 27/138/22 23/137/22
f 54/144/22 35/145/22 33/140/22
f 55/146/22 56/147/22 54/144/22
f 55/146/22 21/143/22 20/148/22
f 55/146/22 33/140/22 29/142/22
f 55/146/22 29/142/22 21/143/22
f 55/146/22 54/144/22 33/140/22
f 10/149/22 1/150/22 5/151/22
f 10/149/22 5/151/22 8/152/22
f 18/153/22 14/154/22 16/155/22
f 57/156/22 14/154/22 18/153/22
f 45/157/22 4/158/22 1/150/22
f 45/157/22 10/149/22 12/159/22
f 45/157/22 12/159/22 14/154/22
f 45/157/22 57/156/22 58/160/22
f 45/157/22 1/150/22 10/149/22
f 45/157/22 14/154/22 57/156/22
f 59/161/22 60/162/22 55/163/22
f 59/161/22 55/163/22 20/164/22
f 41/165/22 20/164/22 4/166/22
f 41/165/22 59/161/22 20/164/22
f 41/165/22 4/166/22 45/167/22
f 37/168/22 39/169/22 59/161/22
f 37/168/22 59/161/22 41/165/22
f 43/170/22 41/165/22 45/167/22
f 52/171/23 48/172/23 55/173/23
f 52/171/23 55/173/23 60/174/23
f 53/175/18 60/176/18 59/177/18
f 53/175/18 52/178/18 60/176/18
f 38/179/24 59/180/24 39/181/24
f 38/182/24 53/183/24 59/184/24
f 36/40/25 35/39/25 54/185/25
f 47/186/25 36/40/25 54/185/25
f 49/187/26 56/188/26 55/173/26
f 49/187/27 54/185/28 56/188/29
f 49/187/27 47/186/27 54/185/28
f 48/172/26 49/187/26 55/173/26
f 18/20/30 17/19/30 50/189/30
f 57/190/31 50/189/32 51/191/32
f 57/190/30 18/20/30 50/189/30
f 58/192/33 51/191/33 46/58/33
f 58/192/31 57/190/31 51/191/32
f 45/55/33 58/192/33 46/58/33
